<svg id="visual" viewBox="0 0 900 600" width="900" height="600" xmlns="http://www.w3.org/2000/svg" xmlns:xlink="http://www.w3.org/1999/xlink" version="1.1"><rect x="0" y="0" width="900" height="600" fill="#002233"></rect><path d="M0 396L21.5 410.3C43 424.7 86 453.3 128.8 472.7C171.7 492 214.3 502 257.2 497.3C300 492.7 343 473.3 385.8 453.5C428.7 433.7 471.3 413.3 514.2 416.5C557 419.7 600 446.3 642.8 447.8C685.7 449.3 728.3 425.7 771.2 431.2C814 436.7 857 471.3 878.5 488.7L900 506L900 601L878.5 601C857 601 814 601 771.2 601C728.3 601 685.7 601 642.8 601C600 601 557 601 514.2 601C471.3 601 428.7 601 385.8 601C343 601 300 601 257.2 601C214.3 601 171.7 601 128.8 601C86 601 43 601 21.5 601L0 601Z" fill="#0066ff" stroke-linecap="round" stroke-linejoin="miter"></path></svg>